<svg xmlns:dc="http://purl.org/dc/elements/1.1/" xmlns:cc="http://creativecommons.org/ns#" xmlns:rdf="http://www.w3.org/1999/02/22-rdf-syntax-ns#" xmlns:svg="http://www.w3.org/2000/svg" xmlns="http://www.w3.org/2000/svg" viewBox="0 0 480 480" fill="none"><metadata><rdf:RDF><cc:Work><dc:format>image/svg+xml</dc:format><dc:type rdf:resource="http://purl.org/dc/dcmitype/StillImage"/><dc:title>Custom Avatar</dc:title><dc:creator><cc:Agent><dc:title>Ashley Seo</dc:title></cc:Agent></dc:creator><dc:source>https://www.figma.com/community/file/881358461963645496</dc:source><cc:license rdf:resource="https://creativecommons.org/licenses/by/4.0/"/></cc:Work><cc:License rdf:about="https://creativecommons.org/licenses/by/4.0/"><cc:permits rdf:resource="https://creativecommons.org/ns#Reproduction"/><cc:permits rdf:resource="https://creativecommons.org/ns#Distribution"/><cc:permits rdf:resource="https://creativecommons.org/ns#DerivativeWorks"/><cc:requires rdf:resource="https://creativecommons.org/ns#Notice"/><cc:requires rdf:resource="https://creativecommons.org/ns#Attribution"/></cc:License></rdf:RDF></metadata><mask id="avatarsRadiusMask"><rect width="480" height="480" rx="0" ry="0" x="0" y="0" fill="#fff"/></mask><g mask="url(#avatarsRadiusMask)"><g transform="translate(16.8 16.8) scale(0.93)"><g transform="matrix(.85775 0 0 .85427 52 47)"><path d="M263.989 38.62s131.387 20.593 121.424 208.128c-.036.695 15.192 10.822 16.384 11.904 10.619 9.62 19.527 21.94 23.423 36.351 13.872 51.319-35.724 104.196-75.83 118.231-14.981 5.242-30.815 7.787-46.681 8.249-103.139 3.009-239.69-62.655-246.703-190.893a172.056 172.056 0 0 1-.195-13.802c.621-24.349 6.488-48.063 15.33-70.082-.004.001 57.398-142.617 192.848-108.085Z" fill="rgba(164, 117, 57, 1)"/><path d="M388.739 248.727c-1.423 3.492-2.844 7.955-3.241 10.507-1.694 10.947 2.045 22.252 8.54 30.378 6.168 7.716 14.976 12.72 23.506 14.607 2.88.637 6.367.964 9.416 1.067-3.204-31.703-28.973-50.725-38.221-56.559ZM203.534 332.051c24.406-5.26 39.558-31.017 33.844-57.531-5.714-26.514-30.13-43.744-54.535-38.484-24.405 5.259-39.558 31.016-33.844 57.53 5.714 26.514 30.13 43.744 54.535 38.485Z" fill="#DC2400" style="mix-blend-mode:multiply" opacity=".1"/><path opacity=".1" d="M323.014 257.889s20.842-19.864 36.977-1.188Z" fill="#000"/><g><path d="M128.679 356.869c-69.38 34.83-132.35-52.512-112.18-101.609 12.866-31.317 50.38-33.752 72.118-5.146 12.829 16.883 23.209 38.464 29.103 59.108" fill="rgba(164, 117, 57, 1)"/><path opacity=".1" d="M71.534 278.927c8.927 9.099 16.103 22.593 24.923 30.12-1.63-12.595-4.232-26.045-10.34-37.396-6.201-11.528-17.479-21.025-28.962-20.242-14.23.971-25.947 17.573-27.454 32.626.9-9.008 18.99-15.104 25.894-14.251 10.812 20.413 14.998 60.644 14.998 60.644 9.007-22.775 5.36-40.689.941-51.501Z" fill="#000"/></g></g><g transform="matrix(.85472 0 0 .855 19 -17)"><path d="M385.305 380.359c9.354.259 18.323-2.416 26.048-10.444 4.042-4.197 8.141-6.507 13.94-2.917 13.885 8.598 17.154 30.077 13.422 44.479-4.098 15.803-16.442 28.544-30.667 36.853-38.279 22.36-67.64 17.328-106.811 3.035-30.833-11.248-72.517-33.921-61.951-72.943 13.085-48.315 69.477-25.118 101.296-12.084 13.51 5.539 29.618 13.602 44.723 14.021Z" fill="#fff"/><mask id="mouthTeethSmile-a" style="mask-type:alpha" maskUnits="userSpaceOnUse" x="237" y="349" width="204" height="115"><path d="M385.305 380.359c9.354.259 18.323-2.416 26.048-10.444 4.042-4.197 8.141-6.507 13.94-2.917 13.885 8.598 17.154 30.077 13.422 44.479-4.098 15.803-16.442 28.544-30.667 36.853-38.279 22.36-67.64 17.328-106.811 3.035-30.833-11.248-72.517-33.921-61.951-72.943 13.085-48.315 69.477-25.118 101.296-12.084 13.51 5.539 29.618 13.602 44.723 14.021Z" fill="#fff"/></mask><g mask="url(#mouthTeethSmile-a)"><path fill-rule="evenodd" clip-rule="evenodd" d="m257.597 434.025 40.072-101.131 5.579 2.211-40.073 101.131-5.578-2.211Zm82.34 32.677 27.679-106.117 5.805 1.514-27.678 106.117-5.806-1.514Zm82.38-25.622-15.273-77.8 5.888-1.155 15.272 77.799-5.887 1.156Z" fill="#D1D3D4"/></g></g><g transform="matrix(.85472 0 0 .855 19 -17)"><g fill="#2A1200"><path d="M300.349 309.163c8.832-.16 17.674 3.022 25.496 7.773 4.691-4.793 6.946-12.983 5.183-21.539-2.472-12.006-11.824-20.057-20.887-17.979-9.064 2.078-14.402 13.498-11.926 25.504.461 2.254 1.232 4.311 2.134 6.241ZM416.11 310.627c1.302-2.877 2.067-6.392 1.993-10.23-.18-9.539-5.289-17.234-11.411-17.182-6.124.049-10.941 7.825-10.761 17.367.1 5.247 1.723 9.88 4.15 13.029 5.111-1.982 10.539-2.928 16.029-2.984Z"/></g><g fill="#71472D"><path d="M333.495 238.676c-13.683-2.225-28.346 2.887-38.189 13.256-3.173 3.343-4.061 9.273-.745 13.048 3.063 3.493 8.636 4.561 12.033.978a38.106 38.106 0 0 1 3.208-3.036c.351-.294 1.325-.816 1.631-1.249.171-.113.338-.226.513-.335a37.653 37.653 0 0 1 3.311-1.858 38.634 38.634 0 0 1 1.966-.902c.209-.087.419-.171.632-.256.582-.101 1.249-.416 1.78-.561a35.606 35.606 0 0 1 6.314-1.117c.67.003 1.339-.01 2.012.017 1.429.06 2.851.219 4.268.447 4.421.72 9.007-3.632 9.138-8.413.139-5.262-3.135-9.247-7.872-10.019ZM425.358 254.39c-4.968-6.836-12.27-11.322-20.146-12.625-2.126-.351-4.607.464-6.265 1.882-1.634 1.397-3.005 3.86-3.148 6.158-.147 2.387.324 4.948 1.815 6.825 1.511 1.903 3.407 3.111 5.715 3.496.378.062.745.168 1.122.25 1.11.383 2.183.856 3.23 1.411a23.874 23.874 0 0 1 3.349 2.746c.34.407.7.797 1.016 1.23 1.362 1.871 3.546 3.204 5.715 3.496 2.076.279 4.66-.388 6.264-1.886 1.663-1.55 2.996-3.699 3.148-6.158.153-2.451-.374-4.844-1.815-6.825Z"/></g></g><g transform="matrix(.85472 0 0 .85667 18 -15)"><g fill="rgba(35, 141, 128, 1)"><path fill-rule="evenodd" clip-rule="evenodd" d="M341.66 167.935c.306.357.604.712.893 1.065.29-.257.571-.51.845-.757 20.782 3.795 37.439 10.491 43.921 15.757 12.662 10.288 18.802 14.248 20.353 14.977 8.514 19.697 13.728 41.672 15.881 55.023 4 24.8 3 53.667 2 65 1.562 1.172 3.192 2.309 4.925 3.519 4.923 3.437 10.678 7.454 18.074 14.481 11.5-22 9.176-34.457 6.5-47.5-1.318-6.43-3.942-12.859-7.1-20.598-6.418-15.73-15.043-36.867-19.4-74.402-3.921-33.788-31.999-84.5-63.999-95.5-25.6-8.8-45.667-3.667-51.001 0-54.999-46-140-14-163 0-10.703 6.515-19.458 16.063-28.682 26.122-10.597 11.557-21.813 23.789-37.318 32.878-29 17-35 60-29 89s9 53-6 72-23 47-6 80c13.6 26.4 9.667 49 6 57 17.474 16.075 55.364 28.983 92.5 38.423 1.846.469 2.307-4.759 2.768-9.979.458-5.192.915-10.377 2.732-9.944l1.607 2.33c.285.967.521 2.181.786 3.545l.001.001c1.293 6.654 3.282 16.883 15.106 19.51C203.825 508.503 236.553 513 236.553 513c13.172-22.392-2.283-53.46-16.086-81.204-7.154-14.382-13.865-27.871-15.914-38.796-3.4-18.136 3.478-31.133 12.261-47.728 6.714-12.687 14.54-27.476 19.739-48.272 4.554-18.215 3.348-32.974 2.174-47.337-1.73-21.156-3.389-41.453 13.534-70.671 27.511-15.385 61.857-15.818 89.399-11.057Zm63.531 25.573a139.336 139.336 0 0 0-2.976-5.896 173.362 173.362 0 0 1 2.976 5.896Z"/><path d="M442.052 448c1.167 5.833 2.8 19.2 0 26-7.5 1.333-24.799 3.6-34 2 6.334-3.833 22-14.8 34-28Z"/></g><g fill="#000" fill-opacity=".3"><path d="M343.398 168.243c20.782 3.795 37.439 10.491 43.921 15.757 12.662 10.288 18.802 14.248 20.353 14.977a163.373 163.373 0 0 0-2.48-5.468 175.346 175.346 0 0 0-2.977-5.898c-11.048-20.634-26.322-35.66-46.162-29.611-2.989 1.035-4.852 2.83-8.082 5.945-1.265 1.219-2.739 2.641-4.573 4.298ZM258.554 169c29.825-43.954 67.223-19.629 83.106-1.065-27.542-4.761-61.888-4.328-89.399 11.057a165.8 165.8 0 0 1 6.293-9.992Z"/></g><g fill="#000" fill-opacity=".15"><path d="M216.552 172c23.2-40 72.334-46.667 94-45-117-12-128 68-128 99 0 24.8 3 39-5 53-29 34.5-18.333 66.667-13 79-5-26 5-45 27-70s-4-66 25-116ZM182.552 444c-14.4-14.4-18-28-18-33 46.4 24 37.334 61.333 27 77 3-8.667 5.4-29.6-9-44ZM112.552 279c8.8-20 7-43.667 5-53 0 30-19 62-40 100-16.8 30.4 7 66 21 80 3-16-10-28-11-57s14-45 25-70ZM443.552 333c5.201-16.4 1.5-39.5-1-49 0 16.4-3 36.167-4.5 44l5.5 5Z"/></g></g><g transform="matrix(.85472 0 0 .85667 14 -12)"/></g></g></svg>