<svg xmlns:dc="http://purl.org/dc/elements/1.1/" xmlns:cc="http://creativecommons.org/ns#" xmlns:rdf="http://www.w3.org/1999/02/22-rdf-syntax-ns#" xmlns:svg="http://www.w3.org/2000/svg" xmlns="http://www.w3.org/2000/svg" viewBox="0 0 480 480" fill="none"><metadata><rdf:RDF><cc:Work><dc:format>image/svg+xml</dc:format><dc:type rdf:resource="http://purl.org/dc/dcmitype/StillImage"/><dc:title>Custom Avatar</dc:title><dc:creator><cc:Agent><dc:title>Ashley Seo</dc:title></cc:Agent></dc:creator><dc:source>https://www.figma.com/community/file/881358461963645496</dc:source><cc:license rdf:resource="https://creativecommons.org/licenses/by/4.0/"/></cc:Work><cc:License rdf:about="https://creativecommons.org/licenses/by/4.0/"><cc:permits rdf:resource="https://creativecommons.org/ns#Reproduction"/><cc:permits rdf:resource="https://creativecommons.org/ns#Distribution"/><cc:permits rdf:resource="https://creativecommons.org/ns#DerivativeWorks"/><cc:requires rdf:resource="https://creativecommons.org/ns#Notice"/><cc:requires rdf:resource="https://creativecommons.org/ns#Attribution"/></cc:License></rdf:RDF></metadata><mask id="avatarsRadiusMask"><rect width="480" height="480" rx="0" ry="0" x="0" y="0" fill="#fff"/></mask><g mask="url(#avatarsRadiusMask)"><g transform="translate(16.8 16.8) scale(0.93)"><g transform="matrix(.85775 0 0 .85427 52 47)"><path d="M263.989 38.62s131.387 20.593 121.424 208.128c-.036.695 15.192 10.822 16.384 11.904 10.619 9.62 19.527 21.94 23.423 36.351 13.872 51.319-35.724 104.196-75.83 118.231-14.981 5.242-30.815 7.787-46.681 8.249-103.139 3.009-239.69-62.655-246.703-190.893a172.056 172.056 0 0 1-.195-13.802c.621-24.349 6.488-48.063 15.33-70.082-.004.001 57.398-142.617 192.848-108.085Z" fill="rgba(201, 156, 98, 1)"/><path d="M388.739 248.727c-1.423 3.492-2.844 7.955-3.241 10.507-1.694 10.947 2.045 22.252 8.54 30.378 6.168 7.716 14.976 12.72 23.506 14.607 2.88.637 6.367.964 9.416 1.067-3.204-31.703-28.973-50.725-38.221-56.559ZM203.534 332.051c24.406-5.26 39.558-31.017 33.844-57.531-5.714-26.514-30.13-43.744-54.535-38.484-24.405 5.259-39.558 31.016-33.844 57.53 5.714 26.514 30.13 43.744 54.535 38.485Z" fill="#DC2400" style="mix-blend-mode:multiply" opacity=".1"/><path opacity=".1" d="M323.014 257.889s20.842-19.864 36.977-1.188Z" fill="#000"/><g><path d="M128.679 356.869c-69.38 34.83-132.35-52.512-112.18-101.609 12.866-31.317 50.38-33.752 72.118-5.146 12.829 16.883 23.209 38.464 29.103 59.108" fill="rgba(201, 156, 98, 1)"/><path opacity=".1" d="M71.534 278.927c8.927 9.099 16.103 22.593 24.923 30.12-1.63-12.595-4.232-26.045-10.34-37.396-6.201-11.528-17.479-21.025-28.962-20.242-14.23.971-25.947 17.573-27.454 32.626.9-9.008 18.99-15.104 25.894-14.251 10.812 20.413 14.998 60.644 14.998 60.644 9.007-22.775 5.36-40.689.941-51.501Z" fill="#000"/></g></g><g transform="matrix(.85472 0 0 .855 19 -17)"><path fill-rule="evenodd" clip-rule="evenodd" d="M317 384a4 4 0 0 1 4-4h92a4 4 0 0 1 0 8h-92a4 4 0 0 1-4-4Z" fill="#592125"/></g><g transform="matrix(.85472 0 0 .855 19 -17)"><g fill="#2A1200"><path d="M340.876 308.878c-15.62-11.981-34.704-9.625-43.1-6.704-.196.068-.345-.186-.208-.342 21.578-24.483 37.823-6.141 43.621 6.818.084.19-.148.355-.313.228ZM419.013 300.265c-.015 7.96-3.619 16.509-12.841 15.526-7.74-.824-9.716-10.983-9.706-15.984.017-8.747 4.4-17.011 10.795-17.023 6.877-.013 11.768 9.52 11.752 17.481Z"/></g><g fill="#71472D"><path d="M333.495 238.676c-13.683-2.225-28.346 2.887-38.189 13.256-3.173 3.343-4.061 9.273-.745 13.048 3.063 3.493 8.636 4.561 12.033.978a38.106 38.106 0 0 1 3.208-3.036c.351-.294 1.325-.816 1.631-1.249.171-.113.338-.226.513-.335a37.653 37.653 0 0 1 3.311-1.858 38.634 38.634 0 0 1 1.966-.902c.209-.087.419-.171.632-.256.582-.101 1.249-.416 1.78-.561a35.606 35.606 0 0 1 6.314-1.117c.67.003 1.339-.01 2.012.017 1.429.06 2.851.219 4.268.447 4.421.72 9.007-3.632 9.138-8.413.139-5.262-3.135-9.247-7.872-10.019ZM425.358 254.39c-4.968-6.836-12.27-11.322-20.146-12.625-2.126-.351-4.607.464-6.265 1.882-1.634 1.397-3.005 3.86-3.148 6.158-.147 2.387.324 4.948 1.815 6.825 1.511 1.903 3.407 3.111 5.715 3.496.378.062.745.168 1.122.25 1.11.383 2.183.856 3.23 1.411a23.874 23.874 0 0 1 3.349 2.746c.34.407.7.797 1.016 1.23 1.362 1.871 3.546 3.204 5.715 3.496 2.076.279 4.66-.388 6.264-1.886 1.663-1.55 2.996-3.699 3.148-6.158.153-2.451-.374-4.844-1.815-6.825Z"/></g></g><g transform="matrix(.85472 0 0 .85667 18 -15)"><path d="M412.723 124.708c20.133-6.007 26.461 19.947 27.333 37.181.058 1.161.092 2.286.104 3.36.221 20.128-6.673 42.169-24.47 51.328-.226.118-4.084-4.079-6.399-6.598-.884-.962-1.543-1.679-1.689-1.818-7.367-6.987-15.384-13.185-23.811-18.572-26.269-16.795-55.864-24.44-86.257-22.549-36.206 2.254-75.793 11.839-103.068 36.737-26.832 24.494-43.372 66.485-42.479 106.709.024 1.052.119 2.723.236 4.784.564 9.919 1.644 28.896-2.223 31.73l-.604.302c-.42.32-1.127.863-2.381 1.848-3.084 2.259-6.571-3.874-11.292-12.175-5.659-9.953-13.091-23.022-23.723-28.475-8.667-4.833-30.6-9.1-49 10.5-2.07-9.402-3.027-16.062-3.47-21.608l-.048.108-.03-1.155a122.44 122.44 0 0 1-.28-6.923c-.018.162-.023.712-.023.712v-.129c-.002-.814 0-1.628.005-2.441-.005-1.019-.005-2.035-.005-3.064-.017-10.832.527-16.353 1.578-26.937l.058-.581c3.773-38.025 15.158-75.559 37.15-105.843 22.412-30.87 56.807-52.344 90.818-65.067a200.3 200.3 0 0 1 10.893-3.727c34.132-10.583 71.077-11.549 105.03-.308 23.276 7.703 44.637 20.907 64.545 36.233 1.34-1.796 2.926-3.442 4.845-4.788 8.319-5.827 21.036-2.091 25.698 7.318 1.682 3.392 3.025 6.828 3.948 10.274 2.379-3.001 5.48-5.314 9.011-6.366Z" fill="rgba(213, 108, 12, 1)"/><path d="M304.676 82.041c23.276 7.704 44.637 20.908 64.545 36.234 1.031-1.388 2.266-2.63 3.635-3.755-2.721 3.097-4.862 7.115-6.665 10.941-8.035-6.792-18.151-10.528-28.302-7.418-9.712 2.979-16.569 11.2-20.693 20.84-23.163-13.925-47.955-19.234-76.406-13.875-34.066 6.416-63.836 30.076-83.607 60.433-26.619 40.876-26.921 118.253-6.875 161.124-.484.458 0 0-3.293 2.585-6.782 4.969-15.515-30.65-35.015-40.65-8.667-4.833-30.6-9.1-49 10.5-3.851-17.5-3.851-25.5-3.851-34.5-.017-10.884.532-16.405 1.593-27.088l.043-.426c3.773-38.024 15.158-75.558 37.15-105.843 22.412-30.869 56.807-52.343 90.818-65.066a200.507 200.507 0 0 1 10.893-3.727c34.132-10.583 71.077-11.549 105.03-.309Z" fill="#000" fill-opacity=".05"/></g><g transform="matrix(.85472 0 0 .85667 14 -12)"/></g></g></svg>