<svg xmlns:dc="http://purl.org/dc/elements/1.1/" xmlns:cc="http://creativecommons.org/ns#" xmlns:rdf="http://www.w3.org/1999/02/22-rdf-syntax-ns#" xmlns:svg="http://www.w3.org/2000/svg" xmlns="http://www.w3.org/2000/svg" viewBox="0 0 480 480" fill="none"><metadata><rdf:RDF><cc:Work><dc:format>image/svg+xml</dc:format><dc:type rdf:resource="http://purl.org/dc/dcmitype/StillImage"/><dc:title>Custom Avatar</dc:title><dc:creator><cc:Agent><dc:title>Ashley Seo</dc:title></cc:Agent></dc:creator><dc:source>https://www.figma.com/community/file/881358461963645496</dc:source><cc:license rdf:resource="https://creativecommons.org/licenses/by/4.0/"/></cc:Work><cc:License rdf:about="https://creativecommons.org/licenses/by/4.0/"><cc:permits rdf:resource="https://creativecommons.org/ns#Reproduction"/><cc:permits rdf:resource="https://creativecommons.org/ns#Distribution"/><cc:permits rdf:resource="https://creativecommons.org/ns#DerivativeWorks"/><cc:requires rdf:resource="https://creativecommons.org/ns#Notice"/><cc:requires rdf:resource="https://creativecommons.org/ns#Attribution"/></cc:License></rdf:RDF></metadata><mask id="avatarsRadiusMask"><rect width="480" height="480" rx="0" ry="0" x="0" y="0" fill="#fff"/></mask><g mask="url(#avatarsRadiusMask)"><g transform="translate(16.8 16.8) scale(0.93)"><g transform="matrix(.85775 0 0 .85427 52 47)"><path d="M263.989 38.62s131.387 20.593 121.424 208.128c-.036.695 15.192 10.822 16.384 11.904 10.619 9.62 19.527 21.94 23.423 36.351 13.872 51.319-35.724 104.196-75.83 118.231-14.981 5.242-30.815 7.787-46.681 8.249-103.139 3.009-239.69-62.655-246.703-190.893a172.056 172.056 0 0 1-.195-13.802c.621-24.349 6.488-48.063 15.33-70.082-.004.001 57.398-142.617 192.848-108.085Z" fill="rgba(255, 228, 192, 1)"/><path d="M388.739 248.727c-1.423 3.492-2.844 7.955-3.241 10.507-1.694 10.947 2.045 22.252 8.54 30.378 6.168 7.716 14.976 12.72 23.506 14.607 2.88.637 6.367.964 9.416 1.067-3.204-31.703-28.973-50.725-38.221-56.559ZM203.534 332.051c24.406-5.26 39.558-31.017 33.844-57.531-5.714-26.514-30.13-43.744-54.535-38.484-24.405 5.259-39.558 31.016-33.844 57.53 5.714 26.514 30.13 43.744 54.535 38.485Z" fill="#DC2400" style="mix-blend-mode:multiply" opacity=".1"/><path opacity=".1" d="M323.014 257.889s20.842-19.864 36.977-1.188Z" fill="#000"/><g><path d="M128.679 356.869c-69.38 34.83-132.35-52.512-112.18-101.609 12.866-31.317 50.38-33.752 72.118-5.146 12.829 16.883 23.209 38.464 29.103 59.108" fill="rgba(255, 228, 192, 1)"/><path opacity=".1" d="M71.534 278.927c8.927 9.099 16.103 22.593 24.923 30.12-1.63-12.595-4.232-26.045-10.34-37.396-6.201-11.528-17.479-21.025-28.962-20.242-14.23.971-25.947 17.573-27.454 32.626.9-9.008 18.99-15.104 25.894-14.251 10.812 20.413 14.998 60.644 14.998 60.644 9.007-22.775 5.36-40.689.941-51.501Z" fill="#000"/></g></g><g transform="matrix(.85472 0 0 .855 19 -17)"><path d="M393.348 366.944c3.015 1.731 24.097-24.743 38.134-16.689 4.739 2.719 8.354 7.356 11.069 12.367 5.966 11.023 8.007 24.415 5.604 36.769-3.401 17.468-15.188 31.769-29.053 41.248-37.308 25.5-66.905 20.68-106.724 5.918-31.343-11.617-74.048-35.531-65.201-78.677 15.573-75.95 146.132-.958 146.171-.936Z" fill="#873C41"/><path d="M285.336 362.088c10.139 6.294 22.484 6.943 33.556 4.433 2.118-.482 3.82 1.296 4.347 3.339 5.406 21.004 36.059 31.967 51.431 18.499 1.193-1.046 3.309-1.293 4.559-.108 8.296 7.871 21.589 10.006 31.351 4.682 13.784-7.52 13.717-28.647 9.962-43.36-12.149 3.711-24.903 18.686-27.195 17.366-.03-.019-80.177-46.04-122.373-29.438.895 10.2 5.579 19.135 14.362 24.587Z" fill="#fff"/><path d="M400.293 443.788c-21.923-20.117-48.878-31.353-76.209-39.326-23.378-6.821-49.7-11.241-73.362-4.473 10.965 23.534 39.18 38.231 61.656 46.564 34.832 12.911 61.843 18.215 93.031 2.275-1.699-1.685-3.356-3.424-5.116-5.04Z" fill="#EE7E8B"/></g><g transform="matrix(.85472 0 0 .855 19 -17)"><g fill="#2A1200"><path d="M331.178 300.479c-.023 11.876-6.228 21.515-19.112 19.539-9.274-2.483-15.448-9.019-15.424-21.474.026-13.049 7.627-21.517 15.508-21.532 10.534-.02 19.051 11.591 19.028 23.467ZM419.013 300.265c-.015 7.96-3.619 16.509-12.842 15.526-7.739-.824-9.715-10.983-9.705-15.984.017-8.747 4.4-17.011 10.795-17.023 6.877-.013 11.768 9.52 11.752 17.481Z"/></g><g fill="#71472D"><path d="M336.947 244.202c-12.423-6.152-27.941-5.58-40.399 1.435-4.016 2.262-6.61 7.668-4.551 12.251 1.901 4.239 6.913 6.9 11.213 4.474a38.291 38.291 0 0 1 3.96-1.957c.422-.178 1.506-.39 1.926-.714.197-.058.389-.116.588-.169a37.477 37.477 0 0 1 3.712-.802 38.115 38.115 0 0 1 2.144-.283c.226-.023.451-.041.679-.059.586.074 1.317-.03 1.866-.012a35.827 35.827 0 0 1 5.853.678c.172.035.34.072.511.111.64.2 1.283.385 1.917.609a36.411 36.411 0 0 1 3.948 1.682c4.014 1.989 9.677-.822 11.21-5.352 1.68-4.989-.277-9.761-4.577-11.892ZM423.529 248.526c-7.428-4.032-15.949-4.938-23.619-2.723-2.07.598-3.959 2.401-4.845 4.395-.874 1.964-1.051 4.777-.191 6.913.895 2.218 2.423 4.327 4.576 5.379 2.183 1.067 4.415 1.342 6.664.696.368-.107.745-.169 1.12-.257a22.487 22.487 0 0 1 3.523-.117c1.422.215 2.822.561 4.205 1.037.482.221.974.418 1.446.672 2.034 1.103 4.58 1.366 6.663.696 1.994-.642 4.04-2.356 4.843-4.399.833-2.115 1.112-4.629.191-6.913-.917-2.278-2.424-4.212-4.576-5.379Z"/></g></g><g transform="matrix(.85472 0 0 .85667 18 -15)"><g fill="rgba(96, 93, 228, 1)"><path fill-rule="evenodd" clip-rule="evenodd" d="M341.66 167.935c.306.357.604.712.893 1.065.29-.257.571-.51.845-.757 20.782 3.795 37.439 10.491 43.921 15.757 12.662 10.288 18.802 14.248 20.353 14.977 8.514 19.697 13.728 41.672 15.881 55.023 4 24.8 3 53.667 2 65 1.562 1.172 3.192 2.309 4.925 3.519 4.923 3.437 10.678 7.454 18.074 14.481 11.5-22 9.176-34.457 6.5-47.5-1.318-6.43-3.942-12.859-7.1-20.598-6.418-15.73-15.043-36.867-19.4-74.402-3.921-33.788-31.999-84.5-63.999-95.5-25.6-8.8-45.667-3.667-51.001 0-54.999-46-140-14-163 0-10.703 6.515-19.458 16.063-28.682 26.122-10.597 11.557-21.813 23.789-37.318 32.878-29 17-35 60-29 89s9 53-6 72-23 47-6 80c13.6 26.4 9.667 49 6 57 17.474 16.075 55.364 28.983 92.5 38.423 1.846.469 2.307-4.759 2.768-9.979.458-5.192.915-10.377 2.732-9.944l1.607 2.33c.285.967.521 2.181.786 3.545l.001.001c1.293 6.654 3.282 16.883 15.106 19.51C203.825 508.503 236.553 513 236.553 513c13.172-22.392-2.283-53.46-16.086-81.204-7.154-14.382-13.865-27.871-15.914-38.796-3.4-18.136 3.478-31.133 12.261-47.728 6.714-12.687 14.54-27.476 19.739-48.272 4.554-18.215 3.348-32.974 2.174-47.337-1.73-21.156-3.389-41.453 13.534-70.671 27.511-15.385 61.857-15.818 89.399-11.057Zm63.531 25.573a139.336 139.336 0 0 0-2.976-5.896 173.362 173.362 0 0 1 2.976 5.896Z"/><path d="M442.052 448c1.167 5.833 2.8 19.2 0 26-7.5 1.333-24.799 3.6-34 2 6.334-3.833 22-14.8 34-28Z"/></g><g fill="#000" fill-opacity=".3"><path d="M343.398 168.243c20.782 3.795 37.439 10.491 43.921 15.757 12.662 10.288 18.802 14.248 20.353 14.977a163.373 163.373 0 0 0-2.48-5.468 175.346 175.346 0 0 0-2.977-5.898c-11.048-20.634-26.322-35.66-46.162-29.611-2.989 1.035-4.852 2.83-8.082 5.945-1.265 1.219-2.739 2.641-4.573 4.298ZM258.554 169c29.825-43.954 67.223-19.629 83.106-1.065-27.542-4.761-61.888-4.328-89.399 11.057a165.8 165.8 0 0 1 6.293-9.992Z"/></g><g fill="#000" fill-opacity=".15"><path d="M216.552 172c23.2-40 72.334-46.667 94-45-117-12-128 68-128 99 0 24.8 3 39-5 53-29 34.5-18.333 66.667-13 79-5-26 5-45 27-70s-4-66 25-116ZM182.552 444c-14.4-14.4-18-28-18-33 46.4 24 37.334 61.333 27 77 3-8.667 5.4-29.6-9-44ZM112.552 279c8.8-20 7-43.667 5-53 0 30-19 62-40 100-16.8 30.4 7 66 21 80 3-16-10-28-11-57s14-45 25-70ZM443.552 333c5.201-16.4 1.5-39.5-1-49 0 16.4-3 36.167-4.5 44l5.5 5Z"/></g></g><g transform="matrix(.85472 0 0 .85667 14 -12)"/></g></g></svg>