<svg xmlns:dc="http://purl.org/dc/elements/1.1/" xmlns:cc="http://creativecommons.org/ns#" xmlns:rdf="http://www.w3.org/1999/02/22-rdf-syntax-ns#" xmlns:svg="http://www.w3.org/2000/svg" xmlns="http://www.w3.org/2000/svg" viewBox="0 0 480 480" fill="none"><metadata><rdf:RDF><cc:Work><dc:format>image/svg+xml</dc:format><dc:type rdf:resource="http://purl.org/dc/dcmitype/StillImage"/><dc:title>Custom Avatar</dc:title><dc:creator><cc:Agent><dc:title>Ashley Seo</dc:title></cc:Agent></dc:creator><dc:source>https://www.figma.com/community/file/881358461963645496</dc:source><cc:license rdf:resource="https://creativecommons.org/licenses/by/4.0/"/></cc:Work><cc:License rdf:about="https://creativecommons.org/licenses/by/4.0/"><cc:permits rdf:resource="https://creativecommons.org/ns#Reproduction"/><cc:permits rdf:resource="https://creativecommons.org/ns#Distribution"/><cc:permits rdf:resource="https://creativecommons.org/ns#DerivativeWorks"/><cc:requires rdf:resource="https://creativecommons.org/ns#Notice"/><cc:requires rdf:resource="https://creativecommons.org/ns#Attribution"/></cc:License></rdf:RDF></metadata><mask id="avatarsRadiusMask"><rect width="480" height="480" rx="0" ry="0" x="0" y="0" fill="#fff"/></mask><g mask="url(#avatarsRadiusMask)"><g transform="translate(16.8 16.8) scale(0.93)"><g transform="matrix(.85775 0 0 .85427 52 47)"><path d="M263.989 38.62s131.387 20.593 121.424 208.128c-.036.695 15.192 10.822 16.384 11.904 10.619 9.62 19.527 21.94 23.423 36.351 13.872 51.319-35.724 104.196-75.83 118.231-14.981 5.242-30.815 7.787-46.681 8.249-103.139 3.009-239.69-62.655-246.703-190.893a172.056 172.056 0 0 1-.195-13.802c.621-24.349 6.488-48.063 15.33-70.082-.004.001 57.398-142.617 192.848-108.085Z" fill="rgba(239, 204, 159, 1)"/><path d="M388.739 248.727c-1.423 3.492-2.844 7.955-3.241 10.507-1.694 10.947 2.045 22.252 8.54 30.378 6.168 7.716 14.976 12.72 23.506 14.607 2.88.637 6.367.964 9.416 1.067-3.204-31.703-28.973-50.725-38.221-56.559ZM203.534 332.051c24.406-5.26 39.558-31.017 33.844-57.531-5.714-26.514-30.13-43.744-54.535-38.484-24.405 5.259-39.558 31.016-33.844 57.53 5.714 26.514 30.13 43.744 54.535 38.485Z" fill="#DC2400" style="mix-blend-mode:multiply" opacity=".1"/><path opacity=".1" d="M323.014 257.889s20.842-19.864 36.977-1.188Z" fill="#000"/><g><path d="M128.679 356.869c-69.38 34.83-132.35-52.512-112.18-101.609 12.866-31.317 50.38-33.752 72.118-5.146 12.829 16.883 23.209 38.464 29.103 59.108" fill="rgba(239, 204, 159, 1)"/><path opacity=".1" d="M71.534 278.927c8.927 9.099 16.103 22.593 24.923 30.12-1.63-12.595-4.232-26.045-10.34-37.396-6.201-11.528-17.479-21.025-28.962-20.242-14.23.971-25.947 17.573-27.454 32.626.9-9.008 18.99-15.104 25.894-14.251 10.812 20.413 14.998 60.644 14.998 60.644 9.007-22.775 5.36-40.689.941-51.501Z" fill="#000"/></g></g><g transform="matrix(.85472 0 0 .855 19 -17)"><path d="M393.348 366.944c3.015 1.731 24.097-24.743 38.134-16.689 4.739 2.719 8.354 7.356 11.069 12.367 5.966 11.023 8.007 24.415 5.604 36.769-3.401 17.468-15.188 31.769-29.053 41.248-37.308 25.5-66.905 20.68-106.724 5.918-31.343-11.617-74.048-35.531-65.201-78.677 15.573-75.95 146.132-.958 146.171-.936Z" fill="#873C41"/><path d="M285.336 362.088c10.139 6.294 22.484 6.943 33.556 4.433 2.118-.482 3.82 1.296 4.347 3.339 5.406 21.004 36.059 31.967 51.431 18.499 1.193-1.046 3.309-1.293 4.559-.108 8.296 7.871 21.589 10.006 31.351 4.682 13.784-7.52 13.717-28.647 9.962-43.36-12.149 3.711-24.903 18.686-27.195 17.366-.03-.019-80.177-46.04-122.373-29.438.895 10.2 5.579 19.135 14.362 24.587Z" fill="#fff"/><path d="M400.293 443.788c-21.923-20.117-48.878-31.353-76.209-39.326-23.378-6.821-49.7-11.241-73.362-4.473 10.965 23.534 39.18 38.231 61.656 46.564 34.832 12.911 61.843 18.215 93.031 2.275-1.699-1.685-3.356-3.424-5.116-5.04Z" fill="#EE7E8B"/></g><g transform="matrix(.85472 0 0 .855 19 -17)"><g fill="#2A1200"><path d="M340.876 289.122c-15.62 11.981-34.704 9.625-43.1 6.704-.196-.068-.345.186-.208.342 21.578 24.483 37.823 6.141 43.621-6.818.084-.19-.148-.355-.313-.228ZM395.969 296.092c7.702 8.578 17.238 6.776 21.748 4.477.18-.092.379.155.273.33-11.458 18.876-19.506 5.313-22.363-4.639-.06-.208.196-.33.342-.168Z"/></g><g fill="#71472D"><path d="M336.947 244.202c-12.423-6.152-27.941-5.58-40.398 1.435-4.017 2.262-6.611 7.668-4.552 12.251 1.901 4.239 6.913 6.9 11.213 4.474a38.391 38.391 0 0 1 3.96-1.957c.422-.178 1.506-.39 1.926-.714.197-.058.389-.116.588-.169a37.477 37.477 0 0 1 3.712-.802 38.237 38.237 0 0 1 2.144-.283c.226-.023.451-.041.679-.059.586.074 1.317-.03 1.866-.012a35.885 35.885 0 0 1 5.854.678c.171.035.339.072.51.111.64.2 1.283.385 1.917.609a36.411 36.411 0 0 1 3.948 1.682c4.014 1.989 9.677-.822 11.21-5.352 1.68-4.989-.277-9.761-4.577-11.892ZM423.529 248.526c-7.428-4.032-15.949-4.938-23.619-2.723-2.07.598-3.959 2.401-4.845 4.395-.874 1.964-1.051 4.777-.191 6.913.895 2.218 2.423 4.327 4.576 5.379 2.183 1.067 4.415 1.342 6.663.696.369-.107.746-.169 1.121-.257a22.487 22.487 0 0 1 3.523-.117c1.422.215 2.822.561 4.205 1.037.482.221.974.418 1.446.672 2.034 1.103 4.58 1.366 6.663.696 1.994-.642 4.04-2.356 4.843-4.399.833-2.115 1.112-4.629.191-6.913-.917-2.278-2.424-4.212-4.576-5.379Z"/></g></g><g transform="matrix(.85472 0 0 .85667 18 -15)"><path d="M366.798 170.897c-7.948 7.153-16.754 17.58-26.503 29.123-16.324 19.33-35.29 41.787-57.295 57.237-28.246 19.831-60.5 30.384-86.539 35.362-9.592 11.139-13.383 22.797-16.372 31.99-3.214 9.884-5.501 16.918-13.076 17.391-8.889-20.605-25.302-54.216-71.013-39-38.504 12.817-40.38 56.31-28 78.5 6.984 12.363 35.289 40.086 81 34l29.5 25.5c-2.857 5.389-8.249 13.113-25.772 20.721-21.903 9.51-123.802.951-133.325-60.864-23.808-20.605-61.139-78.172-19.999-143.6 12.603-20.043 30.342-34.402 51.343-43.643-.256-8.192-.265-17.691.083-28.633 1.904-59.913 58.091-108.414 101.898-118.875 42.807-10.222 132.902-6.823 169.869 26.17C443.101 47.484 473.826 193.926 469.5 249.5c22.4 44 7 106.667-1 131.5-4-33.6-31.333-56-44-61.5 5.6-30.4-5-82-11-104-15.24-23.056-35.221-38.763-46.702-44.603Z" fill="rgba(113, 71, 45, 1)"/></g><g transform="matrix(.85472 0 0 .85667 14 -12)"/></g></g></svg>