<svg xmlns:dc="http://purl.org/dc/elements/1.1/" xmlns:cc="http://creativecommons.org/ns#" xmlns:rdf="http://www.w3.org/1999/02/22-rdf-syntax-ns#" xmlns:svg="http://www.w3.org/2000/svg" xmlns="http://www.w3.org/2000/svg" viewBox="0 0 480 480" fill="none"><metadata><rdf:RDF><cc:Work><dc:format>image/svg+xml</dc:format><dc:type rdf:resource="http://purl.org/dc/dcmitype/StillImage"/><dc:title>Custom Avatar</dc:title><dc:creator><cc:Agent><dc:title>Ashley Seo</dc:title></cc:Agent></dc:creator><dc:source>https://www.figma.com/community/file/881358461963645496</dc:source><cc:license rdf:resource="https://creativecommons.org/licenses/by/4.0/"/></cc:Work><cc:License rdf:about="https://creativecommons.org/licenses/by/4.0/"><cc:permits rdf:resource="https://creativecommons.org/ns#Reproduction"/><cc:permits rdf:resource="https://creativecommons.org/ns#Distribution"/><cc:permits rdf:resource="https://creativecommons.org/ns#DerivativeWorks"/><cc:requires rdf:resource="https://creativecommons.org/ns#Notice"/><cc:requires rdf:resource="https://creativecommons.org/ns#Attribution"/></cc:License></rdf:RDF></metadata><mask id="avatarsRadiusMask"><rect width="480" height="480" rx="0" ry="0" x="0" y="0" fill="#fff"/></mask><g mask="url(#avatarsRadiusMask)"><g transform="translate(16.8 16.8) scale(0.93)"><g transform="matrix(.85775 0 0 .85427 52 47)"><path d="M263.989 38.62s131.387 20.593 121.424 208.128c-.036.695 15.192 10.822 16.384 11.904 10.619 9.62 19.527 21.94 23.423 36.351 13.872 51.319-35.724 104.196-75.83 118.231-14.981 5.242-30.815 7.787-46.681 8.249-103.139 3.009-239.69-62.655-246.703-190.893a172.056 172.056 0 0 1-.195-13.802c.621-24.349 6.488-48.063 15.33-70.082-.004.001 57.398-142.617 192.848-108.085Z" fill="rgba(164, 117, 57, 1)"/><path d="M388.739 248.727c-1.423 3.492-2.844 7.955-3.241 10.507-1.694 10.947 2.045 22.252 8.54 30.378 6.168 7.716 14.976 12.72 23.506 14.607 2.88.637 6.367.964 9.416 1.067-3.204-31.703-28.973-50.725-38.221-56.559ZM203.534 332.051c24.406-5.26 39.558-31.017 33.844-57.531-5.714-26.514-30.13-43.744-54.535-38.484-24.405 5.259-39.558 31.016-33.844 57.53 5.714 26.514 30.13 43.744 54.535 38.485Z" fill="#DC2400" style="mix-blend-mode:multiply" opacity=".1"/><path opacity=".1" d="M323.014 257.889s20.842-19.864 36.977-1.188Z" fill="#000"/><g><path d="M128.679 356.869c-69.38 34.83-132.35-52.512-112.18-101.609 12.866-31.317 50.38-33.752 72.118-5.146 12.829 16.883 23.209 38.464 29.103 59.108" fill="rgba(164, 117, 57, 1)"/><path opacity=".1" d="M71.534 278.927c8.927 9.099 16.103 22.593 24.923 30.12-1.63-12.595-4.232-26.045-10.34-37.396-6.201-11.528-17.479-21.025-28.962-20.242-14.23.971-25.947 17.573-27.454 32.626.9-9.008 18.99-15.104 25.894-14.251 10.812 20.413 14.998 60.644 14.998 60.644 9.007-22.775 5.36-40.689.941-51.501Z" fill="#000"/></g></g><g transform="matrix(.85472 0 0 .855 19 -17)"><path d="M311.352 362.309c27.644-16.375 51.284-17.416 67.942-18.443 33.315-2.053 61.126 8.856 68.496 42.702 6.796 31.212-16.849 49.428-27.798 49.098-10.949-.33-13.245-12.311-39.311-12.898-26.066-.587-63.342 42.929-85.516 26.592-22.174-16.336-18.368-66.581 16.187-87.051Z" fill="#873C41"/><mask id="mouthOpenSad-a" style="mask-type:alpha" maskUnits="userSpaceOnUse" x="281" y="343" width="169" height="110"><path d="M311.392 362.279c27.68-16.349 51.351-17.389 68.03-18.415 33.359-2.052 61.205 8.837 68.583 42.624 6.803 31.159-16.874 49.345-27.837 49.016-10.963-.329-13.261-12.29-39.361-12.874-26.099-.585-63.426 42.858-85.628 26.551-22.202-16.307-18.388-66.466 16.213-86.902Z" fill="#873C41"/></mask><g mask="url(#mouthOpenSad-a)"><path d="M430.562 428.316c-26.128-16.77-55.844-23.513-85.364-26.834-25.25-2.841-53.099-2.689-76.218 8.49 15.472 22.237 11.901 47.503 36.494 52.06 38.113 7.06 102.027-7.496 131.246-29.447-2.047-1.429-4.06-2.922-6.158-4.269Z" fill="#EE7E8B"/><path d="M299.12 376.93c12.241 2.281 24.49-1.761 34.306-8.393 1.876-1.27 4.204-.185 5.491 1.602 13.207 18.375 47.161 17.433 57.01-1.482.764-1.468 2.728-2.51 4.392-1.831 11.046 4.513 24.779 1.557 32.256-7.315 10.556-12.53 2.493-33.047-6.727-45.931-10.409 8.207-17.141 27.595-19.869 27.179-.037-.006-95.387-14.415-130.13 17.7 4.731 9.579 12.667 16.494 23.271 18.471Z" fill="#fff"/></g></g><g transform="matrix(.85472 0 0 .855 19 -17)"><g fill="#2A1200"><path d="M300.349 309.163c8.832-.16 17.674 3.022 25.496 7.773 4.691-4.793 6.946-12.983 5.183-21.539-2.472-12.006-11.824-20.057-20.887-17.979-9.064 2.078-14.402 13.498-11.926 25.504.461 2.254 1.232 4.311 2.134 6.241ZM416.11 310.627c1.302-2.877 2.067-6.392 1.993-10.23-.18-9.539-5.289-17.234-11.411-17.182-6.124.049-10.941 7.825-10.761 17.367.1 5.247 1.723 9.88 4.15 13.029 5.111-1.982 10.539-2.928 16.029-2.984Z"/></g><g fill="#71472D"><path d="M333.495 238.676c-13.683-2.225-28.346 2.887-38.189 13.256-3.173 3.343-4.061 9.273-.745 13.048 3.063 3.493 8.636 4.561 12.033.978a38.106 38.106 0 0 1 3.208-3.036c.351-.294 1.325-.816 1.631-1.249.171-.113.338-.226.513-.335a37.653 37.653 0 0 1 3.311-1.858 38.634 38.634 0 0 1 1.966-.902c.209-.087.419-.171.632-.256.582-.101 1.249-.416 1.78-.561a35.606 35.606 0 0 1 6.314-1.117c.67.003 1.339-.01 2.012.017 1.429.06 2.851.219 4.268.447 4.421.72 9.007-3.632 9.138-8.413.139-5.262-3.135-9.247-7.872-10.019ZM425.358 254.39c-4.968-6.836-12.27-11.322-20.146-12.625-2.126-.351-4.607.464-6.265 1.882-1.634 1.397-3.005 3.86-3.148 6.158-.147 2.387.324 4.948 1.815 6.825 1.511 1.903 3.407 3.111 5.715 3.496.378.062.745.168 1.122.25 1.11.383 2.183.856 3.23 1.411a23.874 23.874 0 0 1 3.349 2.746c.34.407.7.797 1.016 1.23 1.362 1.871 3.546 3.204 5.715 3.496 2.076.279 4.66-.388 6.264-1.886 1.663-1.55 2.996-3.699 3.148-6.158.153-2.451-.374-4.844-1.815-6.825Z"/></g></g><g transform="matrix(.85472 0 0 .85667 18 -15)"><path d="M94.157 287.598c-.13 4.598-.08 9.206.163 13.809 38.507 6.383 56.652 47.191 60.911 66.797 0 0 11.46.64 14.162-1.535 14.178-7.371 39.434-37.515 27.044-99.117-5.999-28-1.899-50.315 47.742-85.16 49.642-34.845 128.476-13.318 144.626-.35C401.725 192.416 403.097 194 407 196.5c-34.364-77.5-101.862-87.673-101.862-87.673-136.906-34.218-195.309 108.616-195.305 108.615-8.996 22.052-14.988 45.792-15.676 70.156Z" fill="rgba(35, 141, 128, 1)"/></g><g transform="matrix(.85472 0 0 .85667 14 -12)"/></g></g></svg>