<svg xmlns:dc="http://purl.org/dc/elements/1.1/" xmlns:cc="http://creativecommons.org/ns#" xmlns:rdf="http://www.w3.org/1999/02/22-rdf-syntax-ns#" xmlns:svg="http://www.w3.org/2000/svg" xmlns="http://www.w3.org/2000/svg" viewBox="0 0 480 480" fill="none"><metadata><rdf:RDF><cc:Work><dc:format>image/svg+xml</dc:format><dc:type rdf:resource="http://purl.org/dc/dcmitype/StillImage"/><dc:title>Custom Avatar</dc:title><dc:creator><cc:Agent><dc:title>Ashley Seo</dc:title></cc:Agent></dc:creator><dc:source>https://www.figma.com/community/file/881358461963645496</dc:source><cc:license rdf:resource="https://creativecommons.org/licenses/by/4.0/"/></cc:Work><cc:License rdf:about="https://creativecommons.org/licenses/by/4.0/"><cc:permits rdf:resource="https://creativecommons.org/ns#Reproduction"/><cc:permits rdf:resource="https://creativecommons.org/ns#Distribution"/><cc:permits rdf:resource="https://creativecommons.org/ns#DerivativeWorks"/><cc:requires rdf:resource="https://creativecommons.org/ns#Notice"/><cc:requires rdf:resource="https://creativecommons.org/ns#Attribution"/></cc:License></rdf:RDF></metadata><mask id="avatarsRadiusMask"><rect width="480" height="480" rx="0" ry="0" x="0" y="0" fill="#fff"/></mask><g mask="url(#avatarsRadiusMask)"><g transform="translate(16.8 16.8) scale(0.93)"><g transform="matrix(.85775 0 0 .85427 52 47)"><path d="M263.989 38.62s131.387 20.593 121.424 208.128c-.036.695 15.192 10.822 16.384 11.904 10.619 9.62 19.527 21.94 23.423 36.351 13.872 51.319-35.724 104.196-75.83 118.231-14.981 5.242-30.815 7.787-46.681 8.249-103.139 3.009-239.69-62.655-246.703-190.893a172.056 172.056 0 0 1-.195-13.802c.621-24.349 6.488-48.063 15.33-70.082-.004.001 57.398-142.617 192.848-108.085Z" fill="rgba(239, 204, 159, 1)"/><path d="M388.739 248.727c-1.423 3.492-2.844 7.955-3.241 10.507-1.694 10.947 2.045 22.252 8.54 30.378 6.168 7.716 14.976 12.72 23.506 14.607 2.88.637 6.367.964 9.416 1.067-3.204-31.703-28.973-50.725-38.221-56.559ZM203.534 332.051c24.406-5.26 39.558-31.017 33.844-57.531-5.714-26.514-30.13-43.744-54.535-38.484-24.405 5.259-39.558 31.016-33.844 57.53 5.714 26.514 30.13 43.744 54.535 38.485Z" fill="#DC2400" style="mix-blend-mode:multiply" opacity=".1"/><path opacity=".1" d="M323.014 257.889s20.842-19.864 36.977-1.188Z" fill="#000"/><g><path d="M128.679 356.869c-69.38 34.83-132.35-52.512-112.18-101.609 12.866-31.317 50.38-33.752 72.118-5.146 12.829 16.883 23.209 38.464 29.103 59.108" fill="rgba(239, 204, 159, 1)"/><path opacity=".1" d="M71.534 278.927c8.927 9.099 16.103 22.593 24.923 30.12-1.63-12.595-4.232-26.045-10.34-37.396-6.201-11.528-17.479-21.025-28.962-20.242-14.23.971-25.947 17.573-27.454 32.626.9-9.008 18.99-15.104 25.894-14.251 10.812 20.413 14.998 60.644 14.998 60.644 9.007-22.775 5.36-40.689.941-51.501Z" fill="#000"/></g></g><g transform="matrix(.85472 0 0 .855 19 -17)"><path d="M385.305 380.359c9.354.259 18.323-2.416 26.048-10.444 4.042-4.197 8.141-6.507 13.94-2.917 13.885 8.598 17.154 30.077 13.422 44.479-4.098 15.803-16.442 28.544-30.667 36.853-38.279 22.36-67.64 17.328-106.811 3.035-30.833-11.248-72.517-33.921-61.951-72.943 13.085-48.315 69.477-25.118 101.296-12.084 13.51 5.539 29.618 13.602 44.723 14.021Z" fill="#fff"/><mask id="mouthTeethSmile-a" style="mask-type:alpha" maskUnits="userSpaceOnUse" x="237" y="349" width="204" height="115"><path d="M385.305 380.359c9.354.259 18.323-2.416 26.048-10.444 4.042-4.197 8.141-6.507 13.94-2.917 13.885 8.598 17.154 30.077 13.422 44.479-4.098 15.803-16.442 28.544-30.667 36.853-38.279 22.36-67.64 17.328-106.811 3.035-30.833-11.248-72.517-33.921-61.951-72.943 13.085-48.315 69.477-25.118 101.296-12.084 13.51 5.539 29.618 13.602 44.723 14.021Z" fill="#fff"/></mask><g mask="url(#mouthTeethSmile-a)"><path fill-rule="evenodd" clip-rule="evenodd" d="m257.597 434.025 40.072-101.131 5.579 2.211-40.073 101.131-5.578-2.211Zm82.34 32.677 27.679-106.117 5.805 1.514-27.678 106.117-5.806-1.514Zm82.38-25.622-15.273-77.8 5.888-1.155 15.272 77.799-5.887 1.156Z" fill="#D1D3D4"/></g></g><g transform="matrix(.85472 0 0 .855 19 -17)"><g fill="#2A1200"><path d="M401.884 284.77c3.898 1.79 9.27 3.915 14.555 5.154 1.59 3.122 2.498 6.841 2.489 10.269-.021 7.961-3.658 16.513-12.951 15.536-7.8-.82-9.785-10.978-9.772-15.979.016-6.111 2.179-11.988 5.679-14.98ZM296.2 292.531a30.443 30.443 0 0 0-.596 6.017c-.033 12.455 6.185 18.988 15.53 21.465 12.984 1.968 19.243-7.675 19.273-19.552.018-6.902-2.871-13.713-7.379-18.203-5.602 4.286-14.434 8.704-26.828 10.273Z"/></g><g fill="#71472D"><path d="M324.846 237.734c-13.715 2.017-26.145 11.324-32.392 24.184-2.014 4.146-1.067 10.067 3.235 12.662 3.977 2.403 9.612 1.736 11.766-2.707a38.274 38.274 0 0 1 2.14-3.864c.245-.386 1.016-1.177 1.177-1.684.128-.159.254-.317.387-.473a37.43 37.43 0 0 1 2.595-2.773 38.507 38.507 0 0 1 1.601-1.454c.173-.147.347-.29.525-.435.523-.272 1.065-.774 1.527-1.073a35.646 35.646 0 0 1 5.197-2.775c.161-.069.32-.134.483-.2.64-.199 1.274-.414 1.923-.591a36.248 36.248 0 0 1 4.203-.865c4.433-.651 7.487-6.186 6.167-10.783-1.46-5.057-5.785-7.866-10.534-7.169ZM425.206 260.439c-3.136-7.848-9.111-13.991-16.426-17.189-1.975-.862-4.58-.682-6.536.285-1.927.953-3.861 3.003-4.564 5.196-.729 2.277-.902 4.876.082 7.061.997 2.216 2.538 3.853 4.681 4.793.351.153.681.347 1.026.519a22.652 22.652 0 0 1 2.784 2.161 23.752 23.752 0 0 1 2.572 3.485c.229.478.482.944.682 1.441.861 2.148 2.65 3.977 4.681 4.793 1.944.781 4.613.769 6.536-.288 1.992-1.095 3.813-2.85 4.565-5.196.75-2.338.827-4.788-.083-7.061Z"/></g></g><g transform="matrix(.85472 0 0 .85667 18 -15)"><g fill="rgba(213, 108, 12, 1)"><path d="M351 167c-32.5 45-106 137.5-207 170.5-6.833-11.667-19-23.9-41-23.5-27.5.5-37.5 20.5-37.5 20.5s-32 53.5 42 87.5c20.5 4 27 4 43.5-3 11.167 8.667 46.6 38.2 59 43-3.167 16.833-8.758 58.8-1.158 78-14.5 1.333-49.842 8.7-77.842-6.5-2.819-17.123-5.299-39.546-.885-48.095-5.269 8.61-14.773 28.264-14.773 39.595-16-5.5-51.6-20.8-66-38C27.01 382 19 127.5 245 106c19.833-2.333 70.4-.3 104 22.5C391 157 412 195 420 233c-17.167-8-55-32.4-69-66ZM433.5 525c-6.8-9.6-2.833-53.167 0-68-28 23.5-44.5 35-102 36.5 10 15 49 20.5 53.5 22.5l8-5.5v8c10.8 3.6 31.5 5.833 40.5 6.5Z"/></g><mask id="hairStraightHair-a" style="mask-type:alpha" maskUnits="userSpaceOnUse" x="245" y="105" width="176" height="128"><path d="M346.501 127.5c-33.6-22.8-81.667-23.833-101.501-21.5 5.477 29.667 22.372 92.8 69 108 13.672-17.718 29.992-34.209 37-47 14 33.6 51.834 58 69 66-8-38-31.499-77-73.499-105.5Z" fill="#E2BA87"/></mask><g mask="url(#hairStraightHair-a)"><path d="M338.932 161.814s-8.276-9.809-26.33-8.17c0 0 12.789-6.945 21.062-6.128 0 0-22.566-16.754-55.664-6.128 0 0 23.318-16.345 41.751-14.302 0 0-19.557-8.579-31.97-6.536 0 0 9.78-12.26 22.565-11.852 0 0-10.156-17.979-25.954-23.698 0 0 31.595 8.992 39.867 15.528 18.43 7.762 35.355 30.647 35.355 30.647-5.641-3.268-14.669-2.451-14.669-2.451 14.669 8.992 25.954 25.741 25.954 25.741-7.145-4.902-15.798-3.268-15.798-3.268 13.917 13.894 18.43 31.873 18.43 31.873-1.88-5.719-15.421-12.668-15.421-12.668 5.264 9.4 6.392 24.515 6.392 24.515l-11.285-14.711s-22.941 19.205-28.962 21.656c0 0 17.301-17.979 18.43-26.15 0 0-25.954 6.945-46.64 9.809.008-.009 28.97-22.073 42.887-23.707Z" fill="#000" fill-opacity=".15"/></g><g fill="#000" fill-opacity=".15"><path d="M281 211c-14 17.667-59.6 60.6-130 91 22.333-14 79.6-51.8 130-91ZM95 302c40.8-86.4 123.667-135.333 160-149-93.6 16-156 108.333-175.5 152.5 3.6-1.6 11.833-3 15.5-3.5ZM74 406.5c2 2.5 7.8 6.4 11 8-1.29 21.925-3.245 64.475-2.242 83.348.265 2.666.516 5.075.742 7.152-.337-1.626-.579-4.074-.742-7.152-1.882-18.939-4.46-50.816-3.758-68.348-3.667 13.333-9.9 17.8-5.5 73-4.667-35.667-11.9-74.4.5-96ZM408.5 476.5c2.8-1.2 7.5-4.5 9.5-6-3.6 6-2.167 36.167-1 50.5-2.4-2-4-9.5-4.5-13-1.6 5.2-4.667 5.5-4 13-4.4-10-.5-28.5 0-44.5ZM183.5 468.5c-4.8 43.6-2.5 55.5 1.5 74h-20c-7.2-35.2 11.167-52 18.5-74Z"/></g></g><g transform="matrix(.85472 0 0 .85667 14 -12)"><g fill-rule="evenodd" clip-rule="evenodd"><path d="M479.063 283.263 430 281.5l-.5-10.5 49.786 2.265-.223 9.998Z" fill="#896307"/><path d="M304.05 220.73c-27.207 4.285-46.105 32.158-41.248 62.992 4.857 30.834 31.407 51.548 58.615 47.263 27.207-4.286 46.104-32.159 41.248-62.993-4.857-30.834-31.407-51.548-58.615-47.262Zm-51.898 52.176c.519-30.648 20.899-57.417 50.342-62.055 33.349-5.252 64.361 20.086 69.954 55.6a.143.143 0 0 1 .004.022 35.38 35.38 0 0 1 3.349-1.162c3.639-1.058 8.223-1.707 12.994-.711.609-12.498 4.244-23.975 10.158-33.038 7.353-11.266 18.424-19.024 31.587-19.713 13.143-.687 25.152 5.841 33.968 16.205 8.819 10.367 14.697 24.806 15.814 40.845 1.117 16.037-2.712 31.017-10.059 42.274-7.352 11.266-18.423 19.024-31.586 19.713-13.143.688-25.152-5.841-33.968-16.204-8.594-10.102-14.395-24.071-15.719-39.617-3.429-1.403-7.065-1.122-10.42-.146-2.091.608-3.917 1.45-5.247 2.162.233 31.364-20.355 59.057-50.35 63.782-33.349 5.253-64.361-20.086-69.955-55.6a72.913 72.913 0 0 1-.305-2.147l-86.442-13.924c-16.216-2.243-32.403-1.499-44.357 2.514-11.991 4.026-18.319 18.835-18.509 28.032L93.5 299.5c.316-15.291 11.421-32.634 25.262-37.281 13.866-4.655 31.713-5.306 48.882-2.924l.054.007 84.454 13.604Zm155.08-35.828c-6.036 9.25-9.435 22.01-8.455 36.087.98 14.075 6.128 26.422 13.44 35.017 7.315 8.599 16.543 13.21 25.918 12.72 9.355-.49 17.82-6.004 23.85-15.245 6.036-9.249 9.435-22.01 8.455-36.087-.98-14.075-6.128-26.421-13.441-35.017-7.315-8.599-16.542-13.21-25.917-12.72-9.355.49-17.82 6.005-23.85 15.245Z" fill="#C5900F"/></g></g></g></g></svg>