<svg xmlns:dc="http://purl.org/dc/elements/1.1/" xmlns:cc="http://creativecommons.org/ns#" xmlns:rdf="http://www.w3.org/1999/02/22-rdf-syntax-ns#" xmlns:svg="http://www.w3.org/2000/svg" xmlns="http://www.w3.org/2000/svg" viewBox="0 0 480 480" fill="none"><metadata><rdf:RDF><cc:Work><dc:format>image/svg+xml</dc:format><dc:type rdf:resource="http://purl.org/dc/dcmitype/StillImage"/><dc:title>Custom Avatar</dc:title><dc:creator><cc:Agent><dc:title>Ashley Seo</dc:title></cc:Agent></dc:creator><dc:source>https://www.figma.com/community/file/881358461963645496</dc:source><cc:license rdf:resource="https://creativecommons.org/licenses/by/4.0/"/></cc:Work><cc:License rdf:about="https://creativecommons.org/licenses/by/4.0/"><cc:permits rdf:resource="https://creativecommons.org/ns#Reproduction"/><cc:permits rdf:resource="https://creativecommons.org/ns#Distribution"/><cc:permits rdf:resource="https://creativecommons.org/ns#DerivativeWorks"/><cc:requires rdf:resource="https://creativecommons.org/ns#Notice"/><cc:requires rdf:resource="https://creativecommons.org/ns#Attribution"/></cc:License></rdf:RDF></metadata><mask id="avatarsRadiusMask"><rect width="480" height="480" rx="240" ry="240" x="0" y="0" fill="#fff"/></mask><g mask="url(#avatarsRadiusMask)"><rect fill="#109e27" width="480" height="480" x="0" y="0"/><g transform="translate(16.8 16.8) scale(0.93)"><g transform="matrix(.85775 0 0 .85427 52 47)"><path d="M263.989 38.62s131.387 20.593 121.424 208.128c-.036.695 15.192 10.822 16.384 11.904 10.619 9.62 19.527 21.94 23.423 36.351 13.872 51.319-35.724 104.196-75.83 118.231-14.981 5.242-30.815 7.787-46.681 8.249-103.139 3.009-239.69-62.655-246.703-190.893a172.056 172.056 0 0 1-.195-13.802c.621-24.349 6.488-48.063 15.33-70.082-.004.001 57.398-142.617 192.848-108.085Z" fill="rgba(239, 204, 159, 1)"/><path d="M388.739 248.727c-1.423 3.492-2.844 7.955-3.241 10.507-1.694 10.947 2.045 22.252 8.54 30.378 6.168 7.716 14.976 12.72 23.506 14.607 2.88.637 6.367.964 9.416 1.067-3.204-31.703-28.973-50.725-38.221-56.559ZM203.534 332.051c24.406-5.26 39.558-31.017 33.844-57.531-5.714-26.514-30.13-43.744-54.535-38.484-24.405 5.259-39.558 31.016-33.844 57.53 5.714 26.514 30.13 43.744 54.535 38.485Z" fill="#DC2400" style="mix-blend-mode:multiply" opacity=".1"/><path opacity=".1" d="M323.014 257.889s20.842-19.864 36.977-1.188Z" fill="#000"/><g><path d="M128.679 356.869c-69.38 34.83-132.35-52.512-112.18-101.609 12.866-31.317 50.38-33.752 72.118-5.146 12.829 16.883 23.209 38.464 29.103 59.108" fill="rgba(239, 204, 159, 1)"/><path opacity=".1" d="M71.534 278.927c8.927 9.099 16.103 22.593 24.923 30.12-1.63-12.595-4.232-26.045-10.34-37.396-6.201-11.528-17.479-21.025-28.962-20.242-14.23.971-25.947 17.573-27.454 32.626.9-9.008 18.99-15.104 25.894-14.251 10.812 20.413 14.998 60.644 14.998 60.644 9.007-22.775 5.36-40.689.941-51.501Z" fill="#000"/></g></g><g transform="matrix(.85472 0 0 .855 19 -17)"><path d="M393.348 366.944c3.015 1.731 24.097-24.743 38.134-16.689 4.739 2.719 8.354 7.356 11.069 12.367 5.966 11.023 8.007 24.415 5.604 36.769-3.401 17.468-15.188 31.769-29.053 41.248-37.308 25.5-66.905 20.68-106.724 5.918-31.343-11.617-74.048-35.531-65.201-78.677 15.573-75.95 146.132-.958 146.171-.936Z" fill="#873C41"/><g fill="#fff"><path d="M318.892 366.521c-11.072 2.51-23.417 1.861-33.556-4.433-8.783-5.452-13.467-14.387-14.362-24.587 26.295-10.346 67.328 3.627 94.526 15.632L352.5 392c-12.847-2.11-25.973-9.366-29.261-22.14-.527-2.043-2.229-3.821-4.347-3.339ZM420.542 349.573C424.297 364.286 414.784 384.48 401 392c-13.936 8.746-31.337 6.972-37.5 1.803l11.17-36.467c11.36 5.401 18.668 9.597 18.677 9.603 2.292 1.319 15.046-13.655 27.195-17.366Z"/></g><path d="M400.293 443.788c-21.923-20.117-48.878-31.353-76.209-39.326-23.378-6.821-49.7-11.241-73.362-4.473 10.965 23.534 39.18 38.231 61.656 46.564 34.832 12.911 61.843 18.215 93.031 2.275-1.699-1.685-3.356-3.424-5.116-5.04Z" fill="#EE7E8B"/></g><g transform="matrix(.85472 0 0 .855 19 -17)"><g fill="#2A1200"><path d="M340.876 308.878c-15.62-11.981-34.704-9.625-43.1-6.704-.196.068-.345-.186-.208-.342 21.578-24.483 37.823-6.141 43.621 6.818.084.19-.148.355-.313.228ZM419.013 300.265c-.015 7.96-3.619 16.509-12.841 15.526-7.74-.824-9.716-10.983-9.706-15.984.017-8.747 4.4-17.011 10.795-17.023 6.877-.013 11.768 9.52 11.752 17.481Z"/></g><g fill="#71472D"><path d="M333.495 238.676c-13.683-2.225-28.346 2.887-38.189 13.256-3.173 3.343-4.061 9.273-.745 13.048 3.063 3.493 8.636 4.561 12.033.978a38.106 38.106 0 0 1 3.208-3.036c.351-.294 1.325-.816 1.631-1.249.171-.113.338-.226.513-.335a37.653 37.653 0 0 1 3.311-1.858 38.634 38.634 0 0 1 1.966-.902c.209-.087.419-.171.632-.256.582-.101 1.249-.416 1.78-.561a35.606 35.606 0 0 1 6.314-1.117c.67.003 1.339-.01 2.012.017 1.429.06 2.851.219 4.268.447 4.421.72 9.007-3.632 9.138-8.413.139-5.262-3.135-9.247-7.872-10.019ZM425.358 254.39c-4.968-6.836-12.27-11.322-20.146-12.625-2.126-.351-4.607.464-6.265 1.882-1.634 1.397-3.005 3.86-3.148 6.158-.147 2.387.324 4.948 1.815 6.825 1.511 1.903 3.407 3.111 5.715 3.496.378.062.745.168 1.122.25 1.11.383 2.183.856 3.23 1.411a23.874 23.874 0 0 1 3.349 2.746c.34.407.7.797 1.016 1.23 1.362 1.871 3.546 3.204 5.715 3.496 2.076.279 4.66-.388 6.264-1.886 1.663-1.55 2.996-3.699 3.148-6.158.153-2.451-.374-4.844-1.815-6.825Z"/></g></g><g transform="matrix(.85472 0 0 .85667 18 -15)"><path d="M379.873 210.099c8.291 8.314 19.625 13.436 32.124 13.436 1.413 0 2.812-.065 4.192-.194 5.042 17.225 8.466 37.044 9.561 59.84 15.476-6.968 26.25-22.525 26.25-40.598 0-11.31-4.219-21.634-11.169-29.484 10.47-8.666 17.169-21.948 17.169-36.838 0-23.145-16.186-42.406-37.56-46.48a54.19 54.19 0 0 0 .344-6.106c0-28.749-22.678-52.054-50.654-52.054a49.33 49.33 0 0 0-21.297 4.81C341.294 57.41 323.121 44 301.901 44c-17.579 0-33.067 9.203-42.151 23.176-8.556-6.548-19.197-10.428-30.729-10.428-20.953 0-38.964 12.81-46.878 31.15a49.332 49.332 0 0 0-20.834-4.591c-27.672 0-50.161 22.802-50.646 51.119-26.577 1.885-47.562 24.413-47.562 51.927 0 13.228 4.85 25.303 12.84 34.486C66.122 230.324 60 243.731 60 258.592c0 28.749 22.91 52.055 51.171 52.055a50.74 50.74 0 0 0 5.611-.31c24.142 14.43 36.319 43.598 39.718 59.246 0 0 11.333.667 14-1.5 11.078-5.802 28.98-25.838 29.828-64.466 9.719-9.475 15.771-22.813 15.771-37.588a52.85 52.85 0 0 0-2.364-15.686c15.572-4.377 28.166-16.055 33.998-31.185a50.255 50.255 0 0 0 20.571 4.377c16.61 0 31.372-8.051 40.721-20.526 8.386 12.397 22.44 20.526 38.362 20.526 12.639 0 24.102-5.122 32.486-13.436Z" fill="rgba(113, 71, 45, 1)"/></g><g transform="matrix(.85472 0 0 .85667 14 -12)"/></g></g></svg>